<?xml version="1.0" encoding="utf-8"?>
<!-- Generator: Adobe Illustrator 18.1.0, SVG Export Plug-In . SVG Version: 6.00 Build 0)  -->
<!DOCTYPE svg PUBLIC "-//W3C//DTD SVG 1.1//EN" "http://www.w3.org/Graphics/SVG/1.1/DTD/svg11.dtd">
<svg version="1.1" id="Layer_1" xmlns="http://www.w3.org/2000/svg" xmlns:xlink="http://www.w3.org/1999/xlink" x="0px" y="0px"
	 viewBox="0 0 72.1 72.1" enable-background="new 0 0 72.1 72.1" xml:space="preserve">
<g>
	<g>
		<path fill="#F04E23" d="M22,32.2H6.2v-2c0-1.8,1.4-3.7,3.1-4.2l5.9-1.6v-2.7h2V26l-7.3,1.9c-0.9,0.3-1.7,1.3-1.7,2.2v0H22V32.2z"
			/>
	</g>
	<g>
		<path fill="#F04E23" d="M33.2,32.2H19.5v-2h11.7c0-1-0.7-2.1-1.5-2.3L22.2,26v-4.1h2v2.6l6,1.5c1.7,0.5,3,2.3,3,4.2V32.2z"/>
	</g>
	<g>
		<path fill="#F04E23" d="M19.8,23.7c-4.7,0-8.6-4.1-8.6-9.2c0-5.1,3.8-9.2,8.6-9.2c4.7,0,8.6,4.1,8.6,9.2
			C28.3,19.6,24.5,23.7,19.8,23.7z M19.8,7.2c-3.6,0-6.6,3.3-6.6,7.2c0,4,2.9,7.2,6.6,7.2s6.6-3.3,6.6-7.2
			C26.3,10.5,23.4,7.2,19.8,7.2z"/>
	</g>
	<g>
		<path fill="#F04E23" d="M24.9,14.8c-0.3,0-0.6,0-0.9-0.1c-1.3-0.2-2.4-0.8-3.2-1.6c-2.8,2.1-6.9,2-9.1,0.4l1.2-1.6
			c1.6,1.1,5.1,1.3,7.4-1c0.2-0.2,0.5-0.3,0.9-0.3c0.3,0,0.6,0.2,0.7,0.5c0.6,1.1,1.8,1.5,2.4,1.6c1,0.1,1.9-0.1,2.3-0.5l1.4,1.4
			C27.3,14.4,26.1,14.8,24.9,14.8z"/>
	</g>
</g>
<g>
	<g>
		<path fill="#F04E23" d="M56,32.2H40.2v-2c0-1.8,1.4-3.7,3.1-4.2l5.9-1.6v-2.7h2V26l-7.3,1.9c-0.9,0.3-1.7,1.3-1.7,2.2v0H56V32.2z"
			/>
	</g>
	<g>
		<path fill="#F04E23" d="M67.2,32.2H53.5v-2h11.7c0-1-0.7-2.1-1.5-2.3L56.2,26v-4.2h2v2.6l6,1.5c1.7,0.5,3,2.3,3,4.2V32.2z"/>
	</g>
	<g>
		<path fill="#F04E23" d="M53.8,23.7c-4.7,0-8.6-4.1-8.6-9.2c0-5.1,3.8-9.2,8.6-9.2s8.6,4.1,8.6,9.2C62.4,19.6,58.5,23.7,53.8,23.7z
			 M53.8,7.2c-3.6,0-6.6,3.3-6.6,7.2c0,4,2.9,7.2,6.6,7.2s6.6-3.3,6.6-7.2C60.4,10.5,57.4,7.2,53.8,7.2z"/>
	</g>
	<g>
		<path fill="#F04E23" d="M58.9,14.8c-0.3,0-0.6,0-0.9-0.1c-1.3-0.2-2.4-0.8-3.2-1.6c-2.8,2.1-6.9,2-9.1,0.4l1.2-1.6
			c1.6,1.1,5.1,1.3,7.4-1c0.2-0.2,0.5-0.3,0.9-0.3c0.3,0,0.6,0.2,0.7,0.5c0.6,1.1,1.8,1.5,2.4,1.6c1,0.1,1.9-0.1,2.2-0.5l1.4,1.4
			C61.3,14.4,60.1,14.8,58.9,14.8z"/>
	</g>
</g>
<g>
	<g>
		<path fill="#F04E23" d="M37.4,66.2H22.6v-2.3c0-1.8,1.4-3.7,3.1-4.2l5.7-1.6v-2.8h2v4.3l-7.1,2c-0.9,0.3-1.7,1.3-1.7,2.3v0.3h12.9
			V66.2z"/>
	</g>
	<g>
		<path fill="#F04E23" d="M49.8,66.2H34.9v-2h12.9v-0.3c0-0.9-0.8-2-1.7-2.3l-7.1-2v-4.3h2v2.8l5.7,1.6c1.8,0.5,3.2,2.3,3.2,4.2
			V66.2z"/>
	</g>
	<g>
		<path fill="#F04E23" d="M36.2,57.5c-4.7,0-8.6-4.1-8.6-9.2c0-5.1,3.8-9.2,8.6-9.2c4.7,0,8.6,4.1,8.6,9.2
			C44.7,53.3,40.9,57.5,36.2,57.5z M36.2,41c-3.6,0-6.6,3.3-6.6,7.2c0,4,2.9,7.2,6.6,7.2s6.6-3.3,6.6-7.2C42.7,44.2,39.8,41,36.2,41
			z"/>
	</g>
	<g>
		<path fill="#F04E23" d="M41.2,48.6c-0.3,0-0.6,0-0.8-0.1c-1.2-0.2-2.3-0.7-3.1-1.6c-2.9,2.1-6.9,2-9.1,0.4l1.2-1.6
			c1.6,1.1,5.1,1.3,7.4-1c0.2-0.2,0.5-0.3,0.9-0.3c0.3,0,0.6,0.2,0.7,0.5c0.6,1.1,1.7,1.4,2.3,1.5c1,0.1,1.9-0.1,2.3-0.5l1.4,1.4
			C43.6,48.1,42.4,48.6,41.2,48.6z"/>
	</g>
</g>
<g>
	<g>
		<path fill="#F04E23" d="M19.7,35.9c0.2,0,0.4,0.1,0.5,0.2l4.6,4.6c0.3,0.3,0.3,0.8,0,1s-0.8,0.3-1,0l-4.6-4.6
			c-0.3-0.3-0.3-0.8,0-1C19.3,36,19.5,35.9,19.7,35.9z"/>
	</g>
	<g>
		<path fill="#F04E23" d="M53.4,36.7c0,0.2-0.1,0.4-0.2,0.5l-4.6,4.6c-0.3,0.3-0.8,0.3-1,0c-0.3-0.3-0.3-0.8,0-1l4.6-4.6
			c0.3-0.3,0.8-0.3,1,0C53.3,36.3,53.4,36.5,53.4,36.7z"/>
	</g>
</g>
<g>
	<path fill="#F04E23" d="M32.4,15.9c0.1-0.1,0.3-0.2,0.5-0.2l6.5,0c0.4,0,0.7,0.3,0.7,0.7s-0.3,0.7-0.7,0.7l-6.5,0
		c-0.4,0-0.7-0.3-0.7-0.7C32.2,16.2,32.3,16,32.4,15.9z"/>
</g>
</svg>
